<?xml version="1.0" standalone="no"?>
<!DOCTYPE svg PUBLIC "-//W3C//DTD SVG 20010904//EN"
 "http://www.w3.org/TR/2001/REC-SVG-20010904/DTD/svg10.dtd">
<svg version="1.0" xmlns="http://www.w3.org/2000/svg"
 width="512.000000pt" height="512.000000pt" viewBox="0 0 512.000000 512.000000"
 preserveAspectRatio="xMidYMid meet">

<g transform="translate(0.000000,512.000000) scale(0.100000,-0.100000)"
fill="#000000" stroke="none">
<path d="M3290 4298 c-26 -14 -53 -37 -65 -58 -19 -33 -20 -54 -23 -457 l-3
-423 -1535 0 c-1509 0 -1535 0 -1574 -20 -21 -11 -49 -34 -62 -52 l-23 -33 0
-697 c0 -688 0 -697 21 -724 11 -15 33 -37 48 -48 27 -21 30 -21 1576 -24
l1549 -2 3 -423 c3 -403 4 -424 23 -457 23 -40 93 -80 141 -80 17 0 49 10 72
23 25 13 360 343 856 843 882 889 838 839 821 932 -6 33 -100 130 -833 866
-481 482 -840 834 -859 842 -46 20 -82 17 -133 -8z m845 -1138 l600 -600 -608
-608 -607 -607 0 368 0 367 -1600 0 -1600 0 0 480 0 480 1600 0 1600 0 0 360
c0 198 3 360 8 360 4 0 277 -270 607 -600z"/>
</g>
</svg>
