<?xml version="1.0" standalone="no"?>
<!DOCTYPE svg PUBLIC "-//W3C//DTD SVG 20010904//EN"
 "http://www.w3.org/TR/2001/REC-SVG-20010904/DTD/svg10.dtd">
<svg version="1.0" xmlns="http://www.w3.org/2000/svg"
 width="512.000000pt" height="512.000000pt" viewBox="0 0 512.000000 512.000000"
 preserveAspectRatio="xMidYMid meet">

<g transform="translate(0.000000,512.000000) scale(0.100000,-0.100000)"
fill="#000000" stroke="none">
<path d="M1682 4298 c-25 -14 -360 -344 -856 -844 -882 -889 -838 -839 -821
-931 6 -34 100 -131 843 -875 753 -752 841 -837 875 -844 82 -14 165 35 186
112 7 25 11 182 11 442 l0 402 1535 0 c1510 0 1536 0 1575 20 21 11 49 34 62
52 l23 33 0 697 c0 688 0 697 -21 724 -11 15 -33 37 -48 48 -27 21 -30 21
-1576 24 l-1549 2 -3 423 c-3 403 -4 424 -23 457 -23 40 -93 80 -141 80 -17 0
-49 -10 -72 -22z m1518 -1258 l1600 0 0 -480 0 -480 -1600 0 -1600 0 0 -360
c0 -198 -3 -360 -8 -360 -4 0 -277 270 -607 600 l-600 600 605 605 605 605 3
-365 2 -365 1600 0z"/>
</g>
</svg>
