<?xml version="1.0" standalone="no"?>
<!DOCTYPE svg PUBLIC "-//W3C//DTD SVG 20010904//EN"
 "http://www.w3.org/TR/2001/REC-SVG-20010904/DTD/svg10.dtd">
<svg version="1.0" xmlns="http://www.w3.org/2000/svg"
 width="626.000000pt" height="555.000000pt" viewBox="0 0 626.000000 555.000000"
 preserveAspectRatio="xMidYMid meet">

<g transform="translate(0.000000,555.000000) scale(0.100000,-0.100000)"
fill="#000000" stroke="none">
<path d="M3131 5504 c-59 -49 -121 -103 -386 -339 -99 -88 -212 -187 -250
-220 -39 -33 -113 -98 -165 -145 -114 -103 -95 -86 -220 -195 -203 -177 -386
-339 -429 -379 -25 -23 -82 -72 -127 -111 -95 -82 -311 -271 -369 -324 -22
-21 -134 -120 -250 -221 -116 -101 -228 -201 -250 -221 -50 -45 -260 -230
-374 -328 -47 -41 -90 -79 -96 -86 -5 -6 -56 -51 -112 -99 l-103 -88 19 -27
c34 -47 75 -79 135 -107 52 -24 67 -26 140 -22 136 9 220 57 471 273 148 127
346 295 574 485 75 63 173 147 218 185 44 39 174 149 288 245 115 96 271 229
349 295 78 66 182 154 231 195 50 41 126 106 171 145 44 38 127 109 185 156
57 48 118 99 134 114 17 14 83 71 148 126 l118 99 82 -72 c45 -39 84 -74 87
-78 3 -3 48 -44 100 -90 52 -47 145 -129 206 -185 60 -55 130 -118 155 -139
24 -22 82 -74 129 -115 47 -42 135 -121 196 -176 170 -154 213 -193 299 -269
44 -39 130 -115 191 -171 60 -55 168 -152 239 -215 71 -63 181 -162 245 -220
64 -58 159 -143 211 -190 53 -47 133 -119 178 -159 167 -151 324 -225 477
-226 73 0 87 3 149 35 41 21 81 51 102 76 l33 41 -142 130 c-79 71 -215 195
-303 275 -88 80 -243 221 -345 313 -102 92 -223 202 -269 244 -47 42 -168 152
-270 245 -102 93 -224 203 -271 245 -46 42 -136 123 -200 181 -108 98 -158
144 -221 201 -259 234 -743 673 -904 820 l-151 137 -53 -44z"/>
<path d="M4916 4912 c-3 -3 -6 -173 -6 -378 l0 -372 173 -145 c94 -80 228
-193 297 -251 69 -58 128 -106 133 -106 4 0 7 281 7 624 0 578 -1 624 -17 630
-21 8 -579 6 -587 -2z"/>
<path d="M3025 4388 c-71 -60 -224 -189 -340 -285 -208 -173 -270 -225 -720
-604 -127 -107 -293 -246 -369 -309 -76 -63 -202 -169 -281 -235 -78 -66 -214
-181 -303 -255 l-162 -135 0 -1225 c0 -1182 1 -1226 19 -1267 36 -77 -18 -73
886 -73 l805 0 0 673 c0 589 2 679 16 720 18 54 58 92 112 107 22 6 179 10
393 10 406 0 436 -4 495 -68 19 -20 39 -53 44 -72 6 -21 10 -292 10 -696 l0
-662 23 -6 c33 -9 1484 -6 1539 3 26 4 63 19 83 32 68 46 65 -15 65 1324 l0
1200 -102 90 c-120 107 -329 292 -848 755 -276 247 -321 286 -495 441 -82 73
-173 153 -200 178 -28 25 -84 75 -125 111 -41 36 -124 110 -185 165 -127 115
-220 195 -226 194 -2 0 -62 -50 -134 -111z"/>
</g>
</svg>
